<?xml version="1.0" encoding="utf-8"?>
<!-- Generator: Adobe Illustrator 17.0.0, SVG Export Plug-In . SVG Version: 6.00 Build 0)  -->
<!DOCTYPE svg PUBLIC "-//W3C//DTD SVG 1.1//EN" "http://www.w3.org/Graphics/SVG/1.1/DTD/svg11.dtd">
<svg version="1.1" id="Capa_1" xmlns="http://www.w3.org/2000/svg" xmlns:xlink="http://www.w3.org/1999/xlink" x="0px" y="0px"
	 width="63.367px" height="43.486px" viewBox="0 0 63.367 43.486" enable-background="new 0 0 63.367 43.486" xml:space="preserve">
<g>
	<path fill="#184460" d="M62.484,20.515c-0.287,1.067-0.568,2.106-0.853,3.117c-0.307,1.093-0.617,2.15-0.939,3.17
		c-0.039,0.13-0.081,0.259-0.122,0.387c-0.206,0.645-0.417,1.273-0.637,1.886c-0.261,0.739-0.534,1.452-0.821,2.142
		c-0.291,0.705-0.599,1.383-0.924,2.034c-1.653,3.309-3.781,5.919-6.913,7.671c-0.47,0.263-0.965,0.509-1.484,0.733
		c-0.961,0.417-2.004,0.764-3.146,1.041c-0.163,0.039-0.328,0.079-0.495,0.114c-0.204,0.045-0.415,0.086-0.625,0.128
		c-0.106,0.02-0.212,0.039-0.32,0.059c-0.104,0.018-0.21,0.035-0.316,0.053c-0.208,0.033-0.421,0.067-0.635,0.096
		c-1.497,0.212-3.138,0.32-4.94,0.32c-1.804,0-3.684-0.208-5.602-0.593c-0.138-0.028-0.275-0.057-0.413-0.086
		c-0.138-0.029-0.277-0.059-0.417-0.09c-0.12-0.028-0.24-0.055-0.362-0.084c-0.24-0.057-0.481-0.116-0.723-0.179
		c-0.242-0.063-0.485-0.13-0.729-0.197c-0.364-0.1-0.727-0.208-1.093-0.322c0,0-0.002-0.002-0.004,0
		c-1.098-0.34-2.199-0.733-3.299-1.167c-0.531-0.212-1.059-0.434-1.588-0.664c-0.878-0.385-1.755-0.798-2.623-1.236
		c-0.252-0.126-0.501-0.255-0.751-0.387H21.71c-0.438-0.23-0.874-0.468-1.309-0.709c-1.301-0.723-2.576-1.501-3.816-2.323
		c-1.038-0.69-2.05-1.407-3.028-2.152c-0.436-0.332-0.867-0.668-1.289-1.01C5.123,26.506,0,19.45,0,13.441
		C0,7.064,6.789,3.702,15.638,1.936c0.472-0.096,0.949-0.185,1.432-0.269c0.026-0.004,0.053-0.01,0.079-0.014
		c0.21-0.037,0.422-0.073,0.637-0.11c0.426-0.071,0.857-0.138,1.289-0.202c0.216-0.031,0.434-0.063,0.652-0.094
		c0.784-0.11,1.578-0.212,2.38-0.303c0,0,0,0,0-0.002l0.13-0.014c0.043-0.006,0.086-0.012,0.13-0.016
		c0.424-0.047,0.853-0.094,1.283-0.136c0.625-0.065,1.254-0.122,1.884-0.175h0.002c0.509-0.043,1.018-0.084,1.529-0.12
		c0.696-0.051,1.391-0.096,2.087-0.138c0.481-0.029,0.965-0.055,1.444-0.079c0.749-0.037,1.495-0.069,2.238-0.096
		c0.497-0.02,0.994-0.037,1.488-0.051c0.814-0.026,1.617-0.045,2.413-0.061c0.018,0,0.035,0,0.053-0.002
		c1.486-0.028,2.934-0.043,4.327-0.049C41.871,0.002,42.611,0,43.333,0c0.544,0,1.075,0.01,1.596,0.029h0.002
		c0.906,0.029,1.776,0.088,2.612,0.173c0.045,0.006,0.09,0.01,0.134,0.016c0.141,0.014,0.281,0.029,0.421,0.045
		c0.924,0.108,1.804,0.25,2.641,0.424c0.314,0.065,0.623,0.136,0.926,0.208c0.303,0.075,0.599,0.151,0.89,0.236
		c0.145,0.041,0.289,0.084,0.432,0.128c0.426,0.132,0.841,0.273,1.24,0.424c0.466,0.173,0.914,0.362,1.342,0.562
		C62.588,5.52,64.73,12.14,62.484,20.515z"/>
	<g>
		<path fill="#FFFFFF" d="M25.535,0.601h-0.002C25.286,0.959,24.85,1.185,24.4,1.144c-0.295-0.028-0.556-0.165-0.751-0.367
			c-0.43,0.041-0.859,0.088-1.283,0.136c-0.043,0.004-0.086,0.01-0.13,0.016l-0.13,0.014c0,0.002,0,0.002,0,0.002
			c0.395,0.912,1.287,1.562,2.268,1.598c1.224,0.043,2.295-0.713,2.639-1.865c0.02-0.065,0.037-0.13,0.051-0.195
			C26.553,0.517,26.044,0.558,25.535,0.601z M34.321,0.118c-0.493,0.014-0.99,0.031-1.488,0.051c0.098,0.197,0.14,0.424,0.116,0.666
			c-0.069,0.67-0.656,1.165-1.319,1.11c-0.68-0.055-1.199-0.696-1.114-1.376c0.014-0.108,0.039-0.208,0.079-0.305
			c-0.479,0.024-0.963,0.049-1.444,0.079c-0.014,0.104-0.022,0.208-0.022,0.314c0,1.15,0.67,2.132,1.717,2.517
			c1.22,0.448,2.57-0.043,3.205-1.167C34.374,1.436,34.465,0.745,34.321,0.118z M41.114,0.006c-1.393,0.006-2.841,0.022-4.327,0.049
			v0.002c-0.305,0.442-0.466,0.973-0.452,1.55c0.028,1.12,0.747,2.059,1.847,2.411c1.201,0.385,2.509-0.169,3.093-1.309
			C41.731,1.824,41.668,0.751,41.114,0.006z M40.183,1.651c-0.073,0.672-0.735,1.189-1.399,1.091
			c-0.662-0.098-1.124-0.713-1.036-1.379c0.088-0.68,0.668-1.13,1.352-1.051C39.764,0.387,40.255,0.994,40.183,1.651z M47.829,0.33
			c-0.055-0.037-0.106-0.075-0.153-0.112c0,0-0.002,0-0.002-0.002c-0.043-0.004-0.086-0.01-0.132-0.014
			c-0.835-0.084-1.706-0.143-2.612-0.173h-0.002c-0.831,0.47-1.368,1.315-1.366,2.232c0.004,1.177,0.688,2.154,1.774,2.535
			c1.197,0.419,2.525-0.081,3.148-1.185C49.098,2.523,48.884,1.034,47.829,0.33z M47.385,2.437
			c-0.067,0.672-0.652,1.167-1.315,1.114c-0.676-0.053-1.203-0.7-1.12-1.374c0.081-0.668,0.676-1.136,1.352-1.067
			C46.984,1.179,47.453,1.755,47.385,2.437z M61.631,23.631c-0.413,0.049-0.827,0.169-1.236,0.369
			c-2.362,1.159-4.694,2.378-7.039,3.568c-0.181,0.09-0.367,0.169-0.633,0.291c0.035-0.324,0.061-0.548,0.086-0.774
			c0.92-8.279,1.843-16.559,2.757-24.84c0-0.002,0-0.002,0-0.004c-0.428-0.2-0.876-0.387-1.342-0.56v0.002
			c-0.002,0.039-0.006,0.077-0.01,0.116c-0.973,8.811-1.953,17.622-2.949,26.433c-0.024,0.214-0.22,0.483-0.413,0.591
			c-0.721,0.413-1.47,0.776-2.217,1.144c-0.436,0.214-0.698,0.507-0.491,1.01c0.169,0.415,0.601,0.493,1.144,0.218
			c3.433-1.739,6.864-3.484,10.295-5.227c0.171-0.086,0.344-0.165,0.546-0.261c0.189,0.369,0.367,0.717,0.562,1.093
			c0,0.004,0.002,0.006,0.006,0.01c0.32-1.022,0.631-2.083,0.941-3.179H61.631z M42.105,36.577
			c-0.238-0.462-0.458-0.888-0.702-1.362c1.022-0.521,2.016-1.032,3.014-1.537c0.81-0.411,1.022-0.715,0.806-1.171
			c-0.218-0.458-0.625-0.483-1.407-0.086c-1.12,0.57-2.234,1.155-3.366,1.702c-0.259,0.124-0.591,0.185-0.878,0.155
			c-3.232-0.342-6.465-0.707-9.697-1.065c-0.173-0.02-0.389-0.1-0.511-0.028c-0.242,0.145-0.593,0.371-0.601,0.576
			c-0.012,0.248,0.257,0.536,0.464,0.751c0.096,0.098,0.332,0.065,0.505,0.084c2.885,0.322,5.771,0.643,8.656,0.963
			c0.21,0.024,0.421,0.047,0.639,0.071c-0.34,0.871-0.377,0.894-1.264,0.796c-2.712-0.303-5.425-0.603-8.137-0.904
			c-0.173-0.02-0.397-0.104-0.511-0.028c-0.248,0.163-0.572,0.389-0.615,0.633c-0.035,0.202,0.253,0.505,0.464,0.69
			c0.122,0.106,0.371,0.073,0.562,0.094c2.672,0.297,5.343,0.593,8.108,0.902c-0.314,0.468-0.597,0.872-0.865,1.289
			c-0.409,0.639-0.179,1.165,0.568,1.234c1.851,0.175,3.702,0.334,5.555,0.464c0.287,0.022,0.611-0.094,0.876-0.226
			c2.006-1.004,4.003-2.028,6.003-3.046c0.134-0.067,0.271-0.124,0.503-0.23c-0.028,0.244-0.045,0.407-0.063,0.57
			c-0.14,1.262-0.277,2.525-0.419,3.787c0,0.002,0,0.004,0,0.004c0.519-0.226,1.012-0.47,1.484-0.733c0-0.002,0-0.002,0-0.004
			c0.147-1.307,0.289-2.615,0.424-3.924c0.035-0.346,0.151-0.552,0.474-0.702c0.719-0.334,1.419-0.709,2.126-1.069
			c1.297-0.658,2.592-1.319,3.889-1.977c0.004-0.002,0.006-0.004,0.008-0.004c0.326-0.65,0.633-1.328,0.924-2.034
			c-0.002,0-0.006,0.002-0.008,0.004c-5.227,2.657-10.436,5.306-15.675,7.97c-0.232-0.448-0.454-0.872-0.709-1.362
			c5.726-2.912,11.436-5.816,17.206-8.75c0.004-0.002,0.006-0.004,0.01-0.006c0.218-0.613,0.43-1.242,0.637-1.886
			c-0.004,0.002-0.006,0.004-0.01,0.006C54.398,30.326,48.265,33.445,42.105,36.577z M38.552,38.96
			c0.601-0.886,1.191-1.753,1.826-2.688c0.529,1.039,1.014,1.994,1.558,3.063C40.766,39.206,39.709,39.088,38.552,38.96z
			 M15.638,1.936v0.002c-1.126,10.106-2.25,20.214-3.37,30.324c0,0.002-0.002,0.002,0,0.004c0.422,0.342,0.853,0.678,1.289,1.01
			c0-0.002,0-0.002,0.002-0.004c1.167-10.534,2.336-21.071,3.511-31.605C16.587,1.751,16.109,1.839,15.638,1.936z"/>
		<path fill="#FFFFFF" d="M24.276,6.524c-2.594-0.299-4.93,1.56-5.229,4.156c-0.297,2.596,1.56,4.924,4.164,5.221
			c2.6,0.297,4.95-1.566,5.235-4.15C28.731,9.155,26.87,6.823,24.276,6.524z M27.066,11.546c-0.193,1.853-1.839,3.175-3.698,2.971
			c-1.827-0.2-3.136-1.833-2.94-3.665c0.198-1.824,1.839-3.144,3.663-2.948C25.923,8.102,27.255,9.731,27.066,11.546z"/>
		<path fill="#FFFFFF" d="M22.979,18.066c-2.59-0.293-4.93,1.58-5.215,4.174c-0.287,2.598,1.574,4.916,4.178,5.207
			c2.602,0.291,4.946-1.582,5.223-4.166C27.442,20.686,25.577,18.361,22.979,18.066z M25.783,23.091
			c-0.191,1.851-1.839,3.175-3.698,2.971c-1.827-0.2-3.136-1.833-2.938-3.665c0.197-1.824,1.837-3.144,3.661-2.949
			C24.641,19.646,25.972,21.275,25.783,23.091z"/>
		<path fill="#FFFFFF" d="M21.717,29.613c-2.596-0.299-4.932,1.554-5.235,4.152c-0.067,0.572-0.028,1.13,0.102,1.657v0.006
			c1.24,0.821,2.515,1.6,3.816,2.323c0.434,0.242,0.871,0.479,1.309,0.709h0.002c0.25,0.132,0.499,0.261,0.751,0.387
			c0.002,0,0.004,0,0.004,0c1.796-0.505,3.195-2.046,3.413-4.001C26.166,32.25,24.307,29.912,21.717,29.613z M24.5,34.641
			c-0.195,1.851-1.843,3.172-3.702,2.965c-1.827-0.204-3.136-1.841-2.934-3.671c0.2-1.824,1.841-3.14,3.667-2.942
			C23.362,31.193,24.691,32.824,24.5,34.641z"/>
		<path fill="#FFFFFF" d="M40.683,11.039c2.75,0.306,5.499,0.611,8.249,0.917c0.173,0.019,0.404-0.018,0.506,0.079
			c0.213,0.204,0.509,0.494,0.487,0.722c-0.022,0.227-0.368,0.456-0.617,0.614c-0.116,0.074-0.337-0.011-0.51-0.03
			c-5.499-0.61-10.999-1.222-16.498-1.833c-0.154-0.017-0.311-0.023-0.46-0.062c-0.392-0.102-0.649-0.399-0.528-0.762
			c0.083-0.247,0.41-0.441,0.668-0.59c0.123-0.071,0.338,0.015,0.511,0.034C35.222,10.432,37.953,10.735,40.683,11.039z"/>
		<path fill="#FFFFFF" d="M39.464,22.59c2.75,0.306,5.499,0.611,8.249,0.917c0.173,0.019,0.406-0.01,0.503,0.089
			c0.196,0.2,0.454,0.487,0.43,0.711c-0.024,0.224-0.336,0.451-0.569,0.605c-0.115,0.076-0.337-0.002-0.51-0.022
			c-5.538-0.614-11.076-1.23-16.613-1.846c-0.154-0.017-0.368,0.012-0.447-0.077c-0.2-0.222-0.473-0.506-0.462-0.753
			c0.009-0.205,0.36-0.43,0.602-0.575c0.121-0.073,0.338,0.008,0.511,0.027C33.926,21.974,36.695,22.282,39.464,22.59z"/>
		<path fill="#FFFFFF" d="M36.449,12.906c1.441,0.16,2.883,0.318,4.324,0.482c0.633,0.072,0.905,0.329,0.857,0.79
			c-0.048,0.463-0.373,0.663-1.001,0.593c-2.922-0.322-5.843-0.646-8.764-0.974c-0.593-0.066-0.925-0.384-0.83-0.815
			c0.114-0.519,0.489-0.63,0.975-0.572C33.488,12.583,34.969,12.741,36.449,12.906z"/>
		<path fill="#FFFFFF" d="M35.165,24.45c1.441,0.16,2.883,0.318,4.324,0.482c0.633,0.072,0.905,0.328,0.858,0.789
			c-0.048,0.463-0.373,0.663-1,0.594c-2.922-0.322-5.843-0.646-8.764-0.974c-0.593-0.067-0.926-0.383-0.831-0.815
			c0.113-0.519,0.488-0.63,0.974-0.573C32.204,24.127,33.685,24.285,35.165,24.45z"/>
		<path fill="#FFFFFF" d="M19.303,5.741c-0.113,1.018-0.223,2.036-0.341,3.053c-0.07,0.606-0.36,0.899-0.819,0.812
			c-0.543-0.103-0.621-0.491-0.566-0.967c0.238-2.092,0.465-4.186,0.702-6.279c0.063-0.557,0.361-0.848,0.788-0.8
			c0.426,0.048,0.652,0.398,0.593,0.954C19.546,3.591,19.422,4.666,19.303,5.741z"/>
		<path fill="#FFFFFF" d="M23.234,11.211c0.633-0.483,1.142-0.868,1.647-1.258c0.372-0.287,0.753-0.358,1.07,0.044
			c0.317,0.401,0.169,0.76-0.206,1.048c-0.691,0.53-1.384,1.058-2.078,1.584c-0.388,0.294-0.754,0.272-1.071-0.107
			c-0.31-0.371-0.613-0.749-0.907-1.133c-0.275-0.36-0.281-0.744,0.083-1.026c0.366-0.284,0.734-0.177,1.012,0.181
			C22.937,10.74,23.064,10.957,23.234,11.211z"/>
		<path fill="#FFFFFF" d="M21.929,22.77c0.624-0.475,1.127-0.863,1.635-1.243c0.47-0.35,0.844-0.34,1.118,0.019
			c0.274,0.359,0.191,0.721-0.277,1.085c-0.656,0.512-1.324,1.008-1.984,1.516c-0.433,0.334-0.816,0.294-1.157-0.134
			c-0.29-0.363-0.589-0.719-0.866-1.091c-0.271-0.363-0.268-0.743,0.101-1.024c0.345-0.262,0.704-0.179,0.972,0.155
			C21.639,22.263,21.763,22.506,21.929,22.77z"/>
		<path fill="#FFFFFF" d="M20.641,34.319c0.631-0.481,1.134-0.87,1.643-1.25c0.469-0.35,0.857-0.346,1.114,0.026
			c0.314,0.455,0.109,0.795-0.277,1.085c-0.664,0.501-1.326,1.006-1.986,1.513c-0.434,0.334-0.816,0.288-1.156-0.139
			c-0.289-0.364-0.587-0.72-0.867-1.091c-0.256-0.339-0.265-0.706,0.062-0.987c0.353-0.303,0.727-0.229,1.015,0.124
			C20.359,33.809,20.479,34.056,20.641,34.319z"/>
	</g>
</g>
</svg>
