<?xml version="1.0" encoding="utf-8"?>
<!-- Generator: Adobe Illustrator 17.0.0, SVG Export Plug-In . SVG Version: 6.00 Build 0)  -->
<!DOCTYPE svg PUBLIC "-//W3C//DTD SVG 1.1//EN" "http://www.w3.org/Graphics/SVG/1.1/DTD/svg11.dtd">
<svg version="1.1" id="Capa_1" xmlns="http://www.w3.org/2000/svg" xmlns:xlink="http://www.w3.org/1999/xlink" x="0px" y="0px"
	 width="63.367px" height="43.486px" viewBox="0 0 63.367 43.486" enable-background="new 0 0 63.367 43.486" xml:space="preserve">
<g>
	<path fill="#184460" d="M63.282,16.335c-0.022,0.242-0.049,0.488-0.081,0.733c0,0.002,0,0.002,0,0.002
		c-0.029,0.248-0.065,0.495-0.106,0.747c0,0.002,0,0.002,0,0.002c-0.039,0.25-0.085,0.503-0.134,0.757v0.002
		c-0.061,0.318-0.13,0.641-0.204,0.963c-0.075,0.326-0.155,0.653-0.244,0.983c-0.059,0.216-0.116,0.432-0.175,0.647
		c-0.014,0.049-0.028,0.098-0.041,0.149c-0.071,0.263-0.142,0.525-0.212,0.784c-0.142,0.519-0.283,1.032-0.425,1.537
		c-0.012,0.043-0.024,0.087-0.037,0.128c-0.071,0.25-0.142,0.497-0.21,0.741c-0.053,0.185-0.106,0.366-0.159,0.548
		c-0.106,0.364-0.212,0.723-0.322,1.077c-0.055,0.177-0.108,0.354-0.163,0.529c-0.016,0.053-0.033,0.104-0.049,0.157l-0.118,0.372
		c-0.165,0.517-0.336,1.026-0.509,1.524c-0.041,0.122-0.085,0.244-0.128,0.364c-0.065,0.181-0.13,0.362-0.195,0.541
		c-0.136,0.368-0.275,0.731-0.417,1.087c-0.035,0.088-0.071,0.175-0.106,0.259c-0.035,0.087-0.071,0.171-0.106,0.258
		c-0.031,0.079-0.065,0.157-0.098,0.234c-0.039,0.098-0.081,0.195-0.124,0.291c-0.067,0.157-0.136,0.313-0.204,0.466
		c-0.016,0.033-0.031,0.067-0.047,0.1c-0.061,0.136-0.124,0.271-0.187,0.403c-0.012,0.024-0.022,0.047-0.033,0.071
		c-0.077,0.159-0.151,0.315-0.23,0.47c-0.102,0.208-0.206,0.413-0.317,0.613c-0.039,0.075-0.079,0.147-0.12,0.222
		c-0.018,0.035-0.037,0.071-0.057,0.106c-0.104,0.189-0.21,0.375-0.318,0.56c-0.014,0.024-0.028,0.047-0.041,0.069
		c0,0.002,0,0.002,0,0.002c-0.045,0.073-0.088,0.145-0.132,0.216c-0.057,0.096-0.116,0.191-0.175,0.283
		c-0.118,0.189-0.238,0.374-0.362,0.554c-0.051,0.077-0.102,0.153-0.155,0.228c-0.096,0.138-0.193,0.273-0.291,0.405
		c-0.075,0.104-0.151,0.204-0.23,0.305c-0.002,0.004-0.004,0.008-0.008,0.012c-0.057,0.075-0.114,0.147-0.175,0.22v0.002
		c-0.051,0.067-0.104,0.132-0.157,0.197c-0.246,0.297-0.497,0.586-0.761,0.863c-0.055,0.059-0.11,0.116-0.167,0.173
		c-0.055,0.059-0.112,0.116-0.169,0.171c-0.112,0.114-0.228,0.224-0.344,0.332c-0.195,0.183-0.393,0.36-0.6,0.531
		c-0.057,0.049-0.114,0.096-0.173,0.144c-0.055,0.045-0.11,0.09-0.167,0.136c-0.055,0.043-0.112,0.087-0.167,0.13
		c-0.163,0.126-0.33,0.248-0.499,0.368c-0.069,0.049-0.138,0.096-0.208,0.144c-0.079,0.053-0.157,0.106-0.236,0.157
		c-0.12,0.079-0.242,0.155-0.366,0.23c-0.079,0.049-0.157,0.096-0.238,0.144c-0.096,0.057-0.193,0.112-0.291,0.167
		c-0.008,0.004-0.016,0.008-0.024,0.014c-0.102,0.057-0.206,0.112-0.311,0.169c-0.153,0.079-0.309,0.157-0.466,0.236
		c-0.092,0.045-0.187,0.088-0.281,0.134c-0.134,0.061-0.267,0.122-0.403,0.181c-0.185,0.079-0.372,0.155-0.562,0.23
		c-0.073,0.029-0.147,0.059-0.224,0.086c-0.045,0.018-0.09,0.033-0.138,0.051c-0.085,0.031-0.171,0.063-0.258,0.092
		c-0.173,0.061-0.35,0.12-0.529,0.177c-0.177,0.057-0.358,0.112-0.543,0.165c-0.018,0.004-0.037,0.01-0.057,0.016
		c-0.088,0.026-0.177,0.049-0.265,0.073c-0.079,0.022-0.157,0.043-0.236,0.063c-0.112,0.029-0.224,0.057-0.336,0.085
		c-0.163,0.039-0.328,0.079-0.495,0.114c-0.204,0.045-0.415,0.086-0.625,0.128c-0.106,0.02-0.212,0.039-0.32,0.059
		c-0.104,0.018-0.21,0.035-0.317,0.053c-0.102,0.016-0.204,0.033-0.309,0.049h-0.006c-0.106,0.018-0.212,0.033-0.32,0.047
		c-0.187,0.026-0.377,0.051-0.568,0.075c-0.193,0.024-0.385,0.045-0.582,0.065c-0.167,0.018-0.336,0.033-0.505,0.047
		c-0.23,0.02-0.464,0.037-0.702,0.053c-0.191,0.012-0.385,0.024-0.58,0.033c-0.043,0.002-0.087,0.004-0.13,0.006
		c-0.159,0.008-0.32,0.014-0.484,0.02c-0.083,0.002-0.167,0.004-0.252,0.006c-0.372,0.01-0.751,0.016-1.138,0.016h-0.002
		c-0.128,0-0.258-0.002-0.385-0.004c-0.098,0-0.197-0.004-0.297-0.006c-0.114-0.004-0.228-0.008-0.34-0.012
		c-0.11-0.004-0.22-0.01-0.332-0.018c-0.069-0.002-0.138-0.006-0.208-0.012c-0.132-0.008-0.265-0.016-0.397-0.028
		c-0.063-0.004-0.124-0.01-0.187-0.016c-0.088-0.006-0.175-0.014-0.263-0.024c-0.222-0.02-0.448-0.045-0.674-0.071
		c-0.427-0.051-0.859-0.112-1.292-0.181c-0.002,0-0.002-0.002-0.002-0.002s0,0-0.002,0c-0.002,0.002-0.002,0.002-0.002,0.002
		c-0.022-0.006-0.043-0.01-0.067-0.012c-0.383-0.065-0.769-0.134-1.156-0.212c-0.138-0.028-0.275-0.057-0.413-0.086
		c-0.273-0.059-0.548-0.12-0.824-0.187c-0.12-0.029-0.242-0.059-0.362-0.088c-0.155-0.039-0.313-0.079-0.468-0.12
		c-0.14-0.035-0.277-0.073-0.417-0.112c-0.11-0.029-0.222-0.061-0.332-0.092c-0.26-0.073-0.517-0.149-0.778-0.23
		c-0.047-0.014-0.096-0.029-0.144-0.043c0,0,0,0-0.002,0H29.98c-0.277-0.087-0.554-0.175-0.832-0.269
		c-0.419-0.138-0.837-0.283-1.256-0.438c-0.118-0.043-0.236-0.086-0.354-0.132c-0.059-0.022-0.12-0.043-0.179-0.067
		c-0.059-0.022-0.118-0.045-0.177-0.069c-0.271-0.102-0.541-0.21-0.812-0.318c-0.33-0.134-0.661-0.271-0.989-0.415
		c-0.138-0.059-0.277-0.12-0.417-0.181c-0.14-0.061-0.279-0.124-0.417-0.187c-0.098-0.045-0.199-0.09-0.299-0.136
		c-0.104-0.047-0.206-0.094-0.309-0.144c-0.165-0.077-0.328-0.155-0.491-0.234c-0.163-0.079-0.326-0.157-0.49-0.238
		c-0.163-0.079-0.326-0.161-0.49-0.242c-0.173-0.088-0.344-0.177-0.517-0.265c-0.142-0.073-0.281-0.145-0.423-0.22
		c-0.281-0.149-0.56-0.299-0.839-0.454c-0.138-0.077-0.277-0.153-0.417-0.232c-0.216-0.12-0.431-0.242-0.645-0.368
		c-0.134-0.077-0.267-0.155-0.401-0.234c-0.134-0.079-0.267-0.157-0.399-0.238c-0.598-0.358-1.191-0.729-1.775-1.109
		c-0.157-0.102-0.313-0.204-0.468-0.307c-0.037-0.024-0.075-0.049-0.11-0.073c-0.183-0.122-0.366-0.246-0.547-0.37
		c-0.126-0.085-0.252-0.171-0.375-0.259c-0.362-0.25-0.721-0.505-1.075-0.765c-0.09-0.065-0.181-0.132-0.271-0.199
		c-0.031-0.022-0.061-0.045-0.092-0.069c-0.187-0.138-0.372-0.277-0.556-0.417c-0.057-0.043-0.114-0.086-0.171-0.132
		c-0.002,0-0.002-0.002-0.002-0.002c-0.092-0.069-0.185-0.14-0.275-0.21c-0.122-0.092-0.24-0.187-0.36-0.281
		c-0.163-0.128-0.324-0.256-0.484-0.385c-0.474-0.381-0.94-0.771-1.394-1.164c-0.081-0.069-0.161-0.14-0.242-0.21
		c-0.214-0.187-0.427-0.374-0.635-0.562c-0.208-0.189-0.413-0.377-0.615-0.566c-0.204-0.189-0.405-0.379-0.604-0.572
		c-0.199-0.193-0.395-0.385-0.588-0.578c-0.096-0.096-0.193-0.193-0.289-0.291c-0.191-0.193-0.379-0.389-0.564-0.586
		c-0.086-0.09-0.173-0.181-0.259-0.273c-0.096-0.104-0.195-0.208-0.289-0.315c-0.09-0.098-0.179-0.199-0.267-0.297
		c-0.179-0.197-0.354-0.395-0.523-0.594c-0.086-0.1-0.171-0.199-0.256-0.299c-0.096-0.112-0.189-0.224-0.281-0.336
		c-0.073-0.088-0.144-0.175-0.214-0.263c-1.449-1.783-2.648-3.602-3.533-5.4c-0.049-0.102-0.098-0.202-0.145-0.303
		c-0.104-0.218-0.202-0.434-0.297-0.653c-0.045-0.106-0.088-0.212-0.132-0.318c-0.14-0.338-0.267-0.678-0.381-1.014
		c-0.029-0.083-0.057-0.165-0.083-0.248c-0.035-0.106-0.067-0.21-0.098-0.315c-0.031-0.104-0.061-0.208-0.09-0.313
		c-0.018-0.065-0.035-0.13-0.053-0.195c-0.024-0.092-0.047-0.183-0.069-0.275c-0.031-0.122-0.059-0.244-0.085-0.366
		c-0.014-0.061-0.026-0.122-0.037-0.181c-0.016-0.075-0.029-0.149-0.043-0.224c-0.02-0.102-0.037-0.204-0.053-0.307
		c-0.012-0.073-0.024-0.147-0.033-0.22c-0.018-0.13-0.033-0.261-0.047-0.391c-0.01-0.09-0.02-0.181-0.026-0.271
		c-0.006-0.045-0.008-0.088-0.012-0.134c-0.012-0.167-0.022-0.332-0.026-0.497C0.002,13.645,0,13.545,0,13.447
		c0-0.189,0.006-0.375,0.018-0.56c0.002-0.026,0.004-0.051,0.006-0.077c0.012-0.177,0.031-0.352,0.055-0.523
		c0.028-0.201,0.063-0.397,0.104-0.592c0.035-0.165,0.077-0.328,0.122-0.49c0.204-0.716,0.509-1.384,0.902-2.011
		c0.045-0.073,0.092-0.145,0.142-0.218c0.096-0.144,0.197-0.285,0.305-0.425c0.055-0.075,0.112-0.147,0.171-0.218
		C1.881,8.261,1.942,8.19,2.003,8.119c0.049-0.059,0.1-0.118,0.153-0.175c0.201-0.222,0.415-0.438,0.639-0.647
		c0.057-0.055,0.116-0.108,0.177-0.161c0.159-0.144,0.322-0.281,0.491-0.417c0.041-0.033,0.083-0.067,0.126-0.1
		c0.049-0.039,0.1-0.079,0.151-0.116C3.822,6.44,3.904,6.379,3.987,6.32c0.1-0.073,0.199-0.144,0.301-0.212
		C4.356,6.061,4.429,6.012,4.5,5.965c0.183-0.122,0.37-0.24,0.56-0.354c0.085-0.053,0.171-0.104,0.258-0.153
		c0.187-0.11,0.379-0.218,0.576-0.322C5.99,5.082,6.09,5.029,6.191,4.978C6.607,4.761,7.042,4.557,7.492,4.36
		C7.58,4.321,7.669,4.282,7.759,4.244c0.108-0.047,0.218-0.092,0.33-0.138c0.236-0.096,0.476-0.191,0.72-0.283L9.11,3.712
		c0.116-0.043,0.234-0.085,0.352-0.126c0.142-0.051,0.285-0.1,0.431-0.149c0.094-0.031,0.189-0.063,0.283-0.094
		c0.122-0.039,0.242-0.079,0.364-0.116c0.124-0.039,0.246-0.077,0.37-0.116c0.124-0.037,0.248-0.075,0.374-0.112
		c0.328-0.096,0.661-0.191,0.999-0.281c0.338-0.09,0.68-0.177,1.026-0.263c0.23-0.055,0.464-0.11,0.698-0.165
		c0.134-0.029,0.267-0.061,0.403-0.09c0.405-0.09,0.816-0.177,1.231-0.259c0.472-0.096,0.95-0.185,1.433-0.271
		c0.026-0.004,0.053-0.01,0.079-0.014c0.142-0.026,0.283-0.049,0.425-0.073c0.142-0.024,0.285-0.047,0.427-0.071
		c0.285-0.047,0.57-0.092,0.859-0.136c0.071-0.012,0.144-0.022,0.216-0.033c0.216-0.031,0.434-0.063,0.653-0.094
		c0.197-0.028,0.393-0.055,0.59-0.081c0.163-0.022,0.324-0.043,0.488-0.065c0.432-0.055,0.867-0.108,1.303-0.157
		c0.043-0.006,0.086-0.012,0.13-0.016c0.043-0.006,0.086-0.012,0.13-0.016h0.008c0.259-0.029,0.523-0.059,0.784-0.086
		c0.163-0.018,0.328-0.033,0.491-0.049c0.242-0.026,0.484-0.049,0.727-0.071c0.159-0.016,0.318-0.031,0.478-0.045
		c0.226-0.02,0.454-0.039,0.68-0.059h0.002c0.114-0.01,0.23-0.02,0.344-0.029c0.106-0.008,0.21-0.016,0.315-0.026
		c0.289-0.024,0.58-0.045,0.871-0.065c0.696-0.051,1.392-0.096,2.088-0.138c0.482-0.029,0.965-0.055,1.445-0.079
		c0.374-0.018,0.749-0.035,1.123-0.051c0.356-0.016,0.712-0.029,1.066-0.043c0.018,0,0.033-0.002,0.051-0.002
		c0.313-0.012,0.625-0.024,0.936-0.033c0.185-0.008,0.37-0.012,0.552-0.018c0.379-0.012,0.755-0.022,1.13-0.031
		c0.431-0.012,0.859-0.022,1.284-0.029h0.053V0.055c0.56-0.01,1.117-0.02,1.665-0.026c0.283-0.004,0.564-0.008,0.843-0.01
		c0.615-0.008,1.223-0.012,1.82-0.014c0.379-0.002,0.753-0.004,1.123-0.004C42.619,0,42.984,0,43.346,0c0.157,0,0.315,0,0.47,0.002
		c0.112,0.002,0.226,0.004,0.336,0.006c0.267,0.004,0.531,0.012,0.79,0.022h0.002c0.222,0.008,0.442,0.016,0.661,0.028h0.026
		c0.134,0.008,0.265,0.014,0.397,0.024c0.126,0.006,0.252,0.014,0.377,0.024c0.391,0.028,0.775,0.061,1.152,0.098
		c0.045,0.004,0.088,0.01,0.132,0.014c0.142,0.016,0.283,0.031,0.423,0.047c0.045,0.006,0.09,0.01,0.136,0.016
		c0.12,0.016,0.24,0.029,0.36,0.045c0.031,0.006,0.063,0.01,0.094,0.014c0.041,0.006,0.085,0.012,0.126,0.018
		c0.102,0.014,0.204,0.028,0.305,0.043c0.026,0.004,0.051,0.008,0.075,0.012c0.177,0.026,0.354,0.055,0.527,0.085
		c0.02,0.004,0.039,0.006,0.059,0.01c0.147,0.026,0.295,0.051,0.44,0.079c0.035,0.008,0.069,0.014,0.102,0.02
		c0.142,0.028,0.281,0.055,0.419,0.085c0.14,0.029,0.277,0.059,0.413,0.088c0.163,0.035,0.322,0.073,0.482,0.112
		c0.01,0.002,0.022,0.006,0.031,0.008c0.151,0.037,0.301,0.075,0.45,0.114c0.144,0.037,0.287,0.077,0.429,0.118
		c0.004,0.002,0.008,0.002,0.012,0.004c0.002,0,0.004,0.002,0.006,0.002c0.114,0.031,0.228,0.067,0.34,0.1
		c0.029,0.008,0.057,0.018,0.086,0.026c0.012,0.004,0.022,0.008,0.033,0.01c0.114,0.035,0.226,0.071,0.336,0.108
		c0.047,0.014,0.094,0.029,0.142,0.045c0.144,0.049,0.285,0.098,0.427,0.149c0.102,0.035,0.202,0.073,0.303,0.11
		c0.11,0.041,0.22,0.083,0.328,0.126c0.128,0.049,0.256,0.102,0.381,0.153c0,0,0,0.002,0.002,0.002
		c0.102,0.043,0.204,0.086,0.307,0.132c0.108,0.047,0.218,0.098,0.324,0.147c0.067,0.031,0.134,0.063,0.201,0.094
		c0.096,0.047,0.191,0.094,0.285,0.142c0.118,0.059,0.234,0.118,0.348,0.181c0.212,0.114,0.421,0.23,0.623,0.352
		c0.057,0.033,0.114,0.067,0.169,0.102c0.098,0.059,0.197,0.12,0.293,0.183c0.108,0.069,0.216,0.14,0.322,0.212
		c0.291,0.199,0.572,0.407,0.839,0.621c0.057,0.043,0.112,0.088,0.167,0.136c0.124,0.102,0.246,0.206,0.366,0.313
		c0.061,0.053,0.12,0.106,0.177,0.161c0.059,0.053,0.116,0.108,0.173,0.163c0.057,0.053,0.114,0.108,0.169,0.165
		c0.169,0.165,0.33,0.336,0.486,0.511c0.104,0.114,0.204,0.232,0.303,0.352c0.1,0.122,0.199,0.244,0.295,0.37
		c0.043,0.059,0.088,0.118,0.132,0.177c0.086,0.116,0.171,0.234,0.25,0.354c0.008,0.012,0.018,0.024,0.026,0.037
		c0.039,0.059,0.079,0.116,0.116,0.175c0.071,0.106,0.138,0.216,0.202,0.326c0.092,0.151,0.181,0.307,0.265,0.462
		c0.028,0.051,0.053,0.1,0.081,0.151c0.02,0.037,0.039,0.077,0.059,0.114c0.059,0.116,0.116,0.232,0.171,0.35
		c0.031,0.067,0.063,0.134,0.094,0.202c0.002,0.006,0.006,0.014,0.008,0.022c0.063,0.134,0.12,0.271,0.173,0.409
		c0.029,0.071,0.057,0.144,0.085,0.216c0.028,0.071,0.055,0.144,0.081,0.216c0.028,0.073,0.053,0.147,0.077,0.22
		c0.026,0.073,0.049,0.147,0.075,0.222c0.024,0.075,0.047,0.149,0.069,0.226c0.022,0.073,0.043,0.147,0.065,0.22
		c0,0.002,0,0.004,0,0.004c0.043,0.151,0.083,0.303,0.12,0.456c0.057,0.23,0.108,0.464,0.151,0.702
		c0.014,0.079,0.029,0.159,0.043,0.238c0.041,0.238,0.077,0.48,0.106,0.725c0.01,0.081,0.018,0.163,0.028,0.246
		c0.024,0.234,0.043,0.47,0.059,0.708c0.006,0.106,0.012,0.212,0.016,0.32C63.386,14.618,63.363,15.464,63.282,16.335z"/>
	<g>
		<path fill="#FFFFFF" d="M14.432,31.614c-0.096-0.267-0.185-0.537-0.295-0.798c-0.191-0.446-0.566-0.629-0.959-0.482
			c-0.405,0.153-0.57,0.515-0.446,0.985c0.029,0.112,0.075,0.22,0.114,0.33c0.181,0.501,0.36,1.003,0.541,1.504
			c0,0,0,0.002,0.002,0.002c0.057,0.045,0.114,0.088,0.171,0.132c0.185,0.14,0.37,0.279,0.556,0.417
			c0.031,0.024,0.061,0.047,0.092,0.069c0.09,0.067,0.181,0.134,0.271,0.199c0.354,0.259,0.714,0.515,1.075,0.765
			C15.181,33.695,14.805,32.653,14.432,31.614z M56.677,3.611c-0.572-0.55-1.146-1.099-1.722-1.647
			c-0.002,0-0.002-0.002-0.002-0.002c-0.126-0.051-0.254-0.104-0.381-0.153c-0.108-0.043-0.218-0.085-0.328-0.126
			c-0.1-0.037-0.201-0.075-0.303-0.11c-0.142-0.051-0.283-0.1-0.427-0.149c-0.047-0.016-0.094-0.031-0.142-0.045
			c-0.11-0.037-0.222-0.073-0.336-0.108c-0.012-0.002-0.022-0.006-0.033-0.01c-0.029-0.008-0.057-0.018-0.086-0.026
			c-0.112-0.033-0.226-0.069-0.34-0.1c-0.002,0-0.004-0.002-0.006-0.002c-0.004-0.002-0.008-0.002-0.012-0.004
			c-0.142-0.041-0.285-0.081-0.429-0.118c-0.149-0.039-0.299-0.077-0.45-0.114c-0.01-0.002-0.022-0.006-0.031-0.008
			c1.075,1.024,2.121,2.021,3.167,3.016c-0.008,0.041-0.018,0.083-0.028,0.124c-0.843,0-1.687,0.002-2.532,0
			c-0.517-0.002-1.036,0.008-1.551-0.031c-0.13-0.01-0.35-0.189-0.352-0.293c-0.018-1.014-0.018-2.029-0.018-3.1
			c-0.033-0.006-0.067-0.012-0.102-0.02c-0.145-0.028-0.293-0.053-0.44-0.079c-0.02-0.004-0.039-0.006-0.059-0.01
			c-0.173-0.029-0.35-0.059-0.527-0.085c-0.024-0.004-0.049-0.008-0.075-0.012c-0.1-0.016-0.202-0.029-0.305-0.045v2.182
			c0,0.385-0.004,0.771,0.004,1.154c0.02,1.077,0.649,1.779,1.73,1.811c1.553,0.045,3.108,0.024,4.663,0.031h0.611v31.724h-29.95
			V22.903c-0.004-0.674-0.265-1.034-0.749-1.03c-0.482,0.004-0.753,0.374-0.753,1.04c-0.002,4.763-0.002,9.529,0,14.292
			c0,1.107,0.486,1.59,1.588,1.592c4.246,0.002,8.493,0,12.739,0h0.598c0.002,0.028,0.004,0.055,0.006,0.081
			c-4.038,0.694-8.074,1.384-12.132,2.08c0,0-0.002,0-0.004,0.002c0.061,0.024,0.12,0.045,0.181,0.067
			c0.059,0.024,0.12,0.045,0.179,0.067c0.118,0.045,0.236,0.088,0.354,0.132c0.419,0.155,0.837,0.301,1.256,0.438
			c0.277,0.094,0.554,0.183,0.832,0.269h0.002c0.002,0,0.002,0,0.002,0c0.047,0.014,0.096,0.029,0.144,0.043
			c0.843-0.145,1.685-0.289,2.528-0.434c1.24-0.212,2.483-0.419,3.725-0.629c0.006,0.026,0.012,0.053,0.02,0.079
			c-1.425,0.513-2.853,1.026-4.278,1.539c-0.002,0-0.004,0.002-0.004,0.002c0.122,0.029,0.244,0.059,0.366,0.086
			c0.016,0.004,0.029,0.008,0.045,0.012c0.122,0.029,0.242,0.057,0.362,0.085c0.14,0.031,0.279,0.061,0.417,0.09
			c0.138,0.029,0.275,0.059,0.413,0.086c0.387,0.079,0.773,0.147,1.156,0.212c0.024,0.002,0.045,0.006,0.067,0.012
			c0,0,0,0,0.002-0.002c0.002,0,0.002,0,0.002,0c2.847-1.024,5.693-2.05,8.538-3.083c2.157-0.782,4.354-1.246,6.653-1.237
			c1.366,0.006,2.733-0.006,4.099,0c0.49,0,0.977,0.004,1.467,0.012c0.794,0.012,1.362-0.252,1.659-1.009v-2.965c0,0,0,0,0-0.002
			V4.396C57.135,4.132,56.926,3.849,56.677,3.611z M24.383,18.711c0,0.214,0.002,0.438,0.059,0.643
			c0.104,0.37,0.381,0.541,0.761,0.511c0.381-0.029,0.613-0.25,0.666-0.629c0.026-0.181,0.016-0.366,0.016-0.55V0.572
			c-0.114,0.01-0.23,0.02-0.344,0.029h-0.002c-0.226,0.02-0.454,0.039-0.68,0.059c-0.159,0.014-0.318,0.029-0.478,0.045v2.157
			c-1.63,0.281-3.22,0.554-4.811,0.828c-1.201,0.204-2.402,0.405-3.602,0.613c-0.839,0.145-1.256,0.682-1.146,1.526
			c0.108,0.824,0.265,1.642,0.405,2.495c-1.06,0.362-2.1,0.716-3.138,1.073c-1.577,0.543-3.147,1.101-4.73,1.626
			c-0.574,0.189-1.058,0.454-1.354,0.997v0.702c0.035,0.073,0.081,0.144,0.108,0.218l4.205,11.683
			c0.407,1.13,0.786,2.271,1.239,3.383c0.096,0.24,0.432,0.499,0.682,0.529c0.218,0.024,0.57-0.212,0.684-0.429
			c0.108-0.204,0.039-0.552-0.051-0.802c-1.632-4.573-3.281-9.141-4.925-13.71c-0.122-0.338-0.236-0.68-0.37-1.062
			c2.662-0.912,5.269-1.805,7.913-2.711c0.275,1.602,0.535,3.116,0.794,4.628c0.92,5.365,1.84,10.73,2.76,16.095
			c0.409,2.383,0.818,4.765,1.229,7.148v0.002c0.043,0.024,0.087,0.049,0.13,0.073c0.096,0.053,0.191,0.106,0.287,0.157
			c0.279,0.155,0.558,0.305,0.839,0.454c0.061,0.033,0.122,0.067,0.183,0.098h0.002c0.079,0.041,0.159,0.083,0.238,0.122
			C20.076,27.65,18.204,16.74,16.325,5.772c2.683-0.46,5.339-0.916,8.056-1.384v0.631C24.381,9.584,24.381,14.147,24.383,18.711z"/>
		<path fill="#FFFFFF" d="M41.006,20.745c-3.458,0-6.916,0-10.374,0c-0.15,0-0.304,0.014-0.45-0.011
			c-0.395-0.068-0.635-0.311-0.647-0.712c-0.012-0.425,0.226-0.687,0.642-0.766c0.146-0.027,0.3-0.013,0.45-0.013
			c6.933,0,13.865,0,20.798,0c0.134,0,0.268-0.008,0.401,0.006c0.422,0.047,0.737,0.379,0.704,0.768
			c-0.036,0.418-0.276,0.671-0.699,0.722c-0.148,0.018-0.3,0.006-0.451,0.006C47.922,20.745,44.464,20.745,41.006,20.745z"/>
		<path fill="#FFFFFF" d="M41.006,13.907c3.474,0,6.949-0.001,10.423,0.001c0.199,0,0.456-0.05,0.585,0.052
			c0.216,0.168,0.476,0.437,0.483,0.67c0.007,0.231-0.234,0.527-0.448,0.687c-0.159,0.12-0.447,0.091-0.677,0.091
			c-6.898,0.004-13.797,0.003-20.695,0.003c-0.084,0-0.167,0.002-0.251-0.001c-0.571-0.019-0.914-0.322-0.897-0.788
			c0.017-0.45,0.337-0.713,0.904-0.713C33.958,13.906,37.482,13.907,41.006,13.907z"/>
		<path fill="#FFFFFF" d="M41.015,26.08c-3.441,0-6.882,0-10.323,0c-0.167,0-0.335,0.009-0.501-0.009
			c-0.383-0.042-0.61-0.27-0.65-0.646c-0.043-0.4,0.143-0.683,0.534-0.793c0.173-0.049,0.362-0.053,0.544-0.053
			c6.932-0.002,13.864-0.003,20.796,0.001c0.214,0,0.493-0.029,0.627,0.088c0.214,0.186,0.437,0.473,0.464,0.737
			c0.036,0.352-0.233,0.612-0.618,0.662c-0.165,0.021-0.333,0.013-0.5,0.013C47.93,26.08,44.472,26.08,41.015,26.08z"/>
		<path fill="#FFFFFF" d="M41.011,8.553c3.44,0,6.881,0,10.321,0.001c0.183,0,0.37-0.008,0.549,0.022
			c0.423,0.07,0.659,0.344,0.642,0.763c-0.016,0.391-0.251,0.648-0.658,0.697c-0.182,0.022-0.367,0.02-0.55,0.02
			c-6.864,0.001-13.728,0.001-20.593,0c-0.2,0-0.403,0.003-0.599-0.031c-0.382-0.067-0.581-0.328-0.589-0.701
			c-0.008-0.373,0.179-0.645,0.558-0.728c0.193-0.042,0.398-0.04,0.597-0.04C34.131,8.552,37.571,8.553,41.011,8.553z"/>
		<path fill="#FFFFFF" d="M41.008,29.941c3.457,0,6.914,0,10.372,0.001c0.167,0,0.336-0.006,0.5,0.015
			c0.408,0.053,0.631,0.316,0.646,0.707c0.014,0.37-0.187,0.639-0.559,0.73c-0.176,0.043-0.363,0.049-0.546,0.049
			c-6.931,0.002-13.862,0.002-20.794-0.001c-0.198,0-0.406-0.007-0.593-0.065c-0.367-0.113-0.586-0.419-0.475-0.765
			c0.081-0.253,0.352-0.474,0.588-0.638c0.126-0.088,0.357-0.032,0.54-0.032C34.127,29.941,37.567,29.941,41.008,29.941z"/>
	</g>
</g>
</svg>
