<?xml version="1.0" encoding="utf-8"?>
<!-- Generator: Adobe Illustrator 17.0.0, SVG Export Plug-In . SVG Version: 6.00 Build 0)  -->
<!DOCTYPE svg PUBLIC "-//W3C//DTD SVG 1.1//EN" "http://www.w3.org/Graphics/SVG/1.1/DTD/svg11.dtd">
<svg version="1.1" id="Capa_1" xmlns="http://www.w3.org/2000/svg" xmlns:xlink="http://www.w3.org/1999/xlink" x="0px" y="0px"
	 width="285.112px" height="156.096px" viewBox="0 0 285.112 156.096" enable-background="new 0 0 285.112 156.096"
	 xml:space="preserve">
<g>
	<path fill="#F9B30C" d="M116.632,20.396c0,4.437,0,8.573,0,13.079c-11.167-5.576-22.074-11.023-33.487-16.722
		C94.456,11.095,105.382,5.63,116.638,0c0,4.535,0,8.714,0,13.113c1.188,0,2.149,0,3.11,0c8.464,0,16.928-0.02,25.392,0.007
		c6.8,0.021,11.395,4.594,11.444,11.361c0.029,3.93-0.039,7.86,0.033,11.789c0.022,1.17-0.347,1.766-1.46,2.131
		c-1.851,0.606-3.656,1.354-5.828,2.173c0-3.462,0.001-6.736,0-10.009c-0.001-2.116,0.046-4.234-0.019-6.348
		c-0.069-2.22-1.327-3.771-3.402-3.787C136.25,20.354,126.59,20.396,116.632,20.396z"/>
	<path fill="#F9B30C" d="M251.522,47.17c11.308,5.656,22.203,11.105,33.589,16.8c-11.359,5.685-22.289,11.154-33.49,16.759
		c0-4.521,0-8.654,0-12.944c-0.697-0.068-1.27-0.172-1.842-0.173c-7.559-0.011-15.118-0.018-22.676-0.002
		c-3.27,0.007-4.538,1.269-4.561,4.505c-0.032,4.459-0.038,8.918-0.06,13.376c0,0.063-0.072,0.125-0.173,0.288
		c-2.232,0-4.528,0-6.934,0c0-5.399-0.326-10.771,0.091-16.086c0.425-5.428,5.218-9.295,10.798-9.335
		c7.558-0.054,15.117-0.015,22.676-0.016c0.81,0,1.62,0,2.583,0C251.522,55.989,251.522,51.856,251.522,47.17z"/>
	<g>
		<path fill="#FFFFFF" d="M54.292,154.108l-38.76-60.081v60.081H0V38.606l54.292,83.097l54.221-83.097v115.502H92.981V94.027
			L54.292,154.108z"/>
		<path fill="#FFFFFF" d="M207.072,144.295c-3.107,2.072-6.378,3.837-9.814,5.295c-3.484,1.507-7.084,2.636-10.802,3.389
			c-3.86,0.753-7.743,1.129-11.649,1.129c-3.907,0-7.814-0.376-11.72-1.129c-3.718-0.753-7.319-1.882-10.802-3.389
			c-3.484-1.458-6.777-3.223-9.884-5.295c-3.06-2.118-5.884-4.471-8.472-7.06c-2.636-2.635-4.989-5.482-7.06-8.543
			c-2.118-3.107-3.907-6.377-5.366-9.813c-1.459-3.53-2.589-7.154-3.389-10.872c-0.754-3.813-1.13-7.695-1.13-11.649
			c0-3.907,0.376-7.789,1.13-11.649c0.8-3.717,1.929-7.318,3.389-10.802c1.458-3.435,3.248-6.707,5.366-9.813
			c2.071-3.059,4.424-5.93,7.06-8.614c2.588-2.588,5.412-4.942,8.472-7.06c3.107-2.071,6.4-3.813,9.884-5.224
			c3.483-1.506,7.083-2.635,10.802-3.389c3.859-0.8,7.766-1.2,11.72-1.2c3.906,0,7.789,0.4,11.649,1.2
			c3.718,0.753,7.318,1.883,10.802,3.389c3.483,1.412,6.754,3.154,9.814,5.224c2.918,2.024,5.624,4.26,8.119,6.707l-10.52,10.52
			c-1.836-1.789-3.813-3.389-5.93-4.801c-2.307-1.553-4.754-2.87-7.342-3.953c-2.589-1.13-5.249-1.953-7.978-2.471
			c-2.871-0.611-5.743-0.918-8.613-0.918c-2.871,0-5.766,0.307-8.684,0.918c-2.778,0.518-5.436,1.342-7.978,2.471
			c-2.589,1.083-5.037,2.4-7.343,3.953c-2.307,1.553-4.424,3.295-6.354,5.224c-1.977,1.977-3.719,4.095-5.224,6.354
			c-1.553,2.307-2.848,4.73-3.883,7.271c-1.13,2.589-1.977,5.272-2.542,8.048c-0.565,2.824-0.847,5.696-0.847,8.614
			c0,2.919,0.282,5.813,0.847,8.684c0.565,2.73,1.412,5.39,2.542,7.977c1.035,2.542,2.33,4.967,3.883,7.272
			c1.506,2.307,3.248,4.424,5.224,6.354c1.929,1.977,4.047,3.718,6.354,5.224c2.306,1.601,4.754,2.919,7.343,3.954
			c2.542,1.13,5.2,1.954,7.978,2.471c2.918,0.612,5.813,0.918,8.684,0.918c2.87,0,5.742-0.306,8.613-0.918
			c2.729-0.517,5.389-1.341,7.978-2.471c2.588-1.035,5.036-2.353,7.342-3.954c2.306-1.505,4.401-3.247,6.283-5.224
			c1.977-1.93,3.742-4.048,5.295-6.354c1.553-2.305,2.847-4.73,3.883-7.272c1.129-2.588,1.977-5.248,2.542-7.977l0.282-1.2h-30.217
			V88.874h45.749v7.484c0,3.954-0.401,7.837-1.2,11.649c-0.753,3.718-1.86,7.342-3.318,10.872c-1.46,3.436-3.248,6.707-5.365,9.813
			c-2.072,3.06-4.425,5.907-7.06,8.543C213.025,139.824,210.178,142.177,207.072,144.295z"/>
	</g>
	<path fill="#1E1E1E" d="M165.124,37.75c-6.827,1.726-12.946,4.218-18.603,7.608c-1.054,0.632-1.839,0.7-2.935,0.135
		c-1.713-0.882-3.68-2.392-5.267-2.152c-1.614,0.244-2.912,2.271-4.322,3.542c-2.964,2.67-5.878,5.387-8.884,8.018
		c-0.854,0.747-1.058,1.402-0.331,2.229c2.784,3.173,2.457,5.99-0.096,9.416c-3.864,5.184-6.047,11.158-7.417,17.314
		c-0.298,1.339-0.876,2.122-2.43,2.449c-1.734,0.365-4.078,0.58-4.903,1.654c-0.888,1.156-0.371,3.231-0.384,4.905
		c-0.029,3.965,0.021,7.93-0.031,11.894c-0.013,0.972,0.248,1.573,1.385,1.69c4.515,0.465,6.488,2.707,7.368,6.846
		c1.331,6.26,4.606,11.953,8.488,17.287c0.66,0.906,0.721,1.616,0.129,2.529c-0.813,1.253-1.605,2.533-2.206,3.875
		c-0.213,0.476-0.074,1.377,0.305,1.73c4.344,4.052,8.764,8.037,13.294,12.156c1.652-0.77,3.344-1.448,4.904-2.321
		c1.302-0.729,2.28-0.726,3.608,0.08c4.988,3.029,10.419,5.259,16.146,6.891c0.662,0.189,1.334,0.35,2.182,0.572
		c0-3.713,0.06-7.261-0.07-10.804c-0.018-0.488-0.885-1.163-1.516-1.388c-10.716-3.814-19.4-9.959-25.897-18.579
		c-20.135-26.714-7.579-63.529,25.682-75.24c1.492-0.525,1.882-1.172,1.837-2.522C165.052,44.363,165.124,41.158,165.124,37.75z"/>
	<path fill="#1E1E1E" d="M165.124,56.943c-15.279,2.952-30.111,21.004-30.9,36.951c-1.053,21.286,14.905,36.609,30.9,41.623
		c0-2.921-0.166-5.771,0.054-8.598c0.167-2.144-0.592-3.376-2.737-4.659c-21.776-13.02-21.051-40.7,1.313-52.945
		c1.077-0.59,1.423-1.201,1.399-2.256C165.076,63.699,165.124,60.336,165.124,56.943z"/>
</g>
</svg>
