<?xml version="1.0" standalone="no"?>
<!DOCTYPE svg PUBLIC "-//W3C//DTD SVG 20010904//EN"
 "http://www.w3.org/TR/2001/REC-SVG-20010904/DTD/svg10.dtd">
<svg version="1.0" xmlns="http://www.w3.org/2000/svg"
 width="900.000000pt" height="626.000000pt" viewBox="0 0 900.000000 626.000000"
 preserveAspectRatio="xMidYMid meet">

<g transform="translate(0.000000,626.000000) scale(0.100000,-0.100000)"
fill="#000000" stroke="none">
<path d="M3934 5956 c-17 -8 -39 -24 -48 -37 -18 -26 -21 -100 -6 -130 12 -22
72 -62 110 -74 87 -27 195 -137 245 -250 27 -61 34 -90 44 -195 8 -73 12 -86
39 -113 26 -26 39 -31 81 -31 44 -1 55 3 82 31 25 24 33 42 37 82 11 119 -40
313 -113 427 -118 185 -366 337 -471 290z"/>
<path d="M3795 5113 c-50 -20 -84 -43 -157 -106 -165 -141 -271 -381 -270
-612 1 -223 98 -489 262 -717 51 -70 203 -249 246 -290 61 -57 167 -75 299
-51 110 20 336 22 420 3 74 -16 189 -16 243 1 55 16 95 51 208 182 192 222
300 418 360 652 43 170 34 364 -26 520 -70 186 -239 370 -384 419 -98 33 -217
12 -399 -71 -99 -46 -105 -47 -197 -47 -93 0 -97 1 -208 52 -175 80 -306 102
-397 65z"/>
<path d="M3425 3519 c-183 -34 -372 -71 -570 -109 -205 -40 -375 -72 -545
-103 -74 -14 -155 -30 -179 -36 -34 -7 -63 -6 -122 7 -73 15 -81 15 -114 -1
-55 -26 -122 -140 -151 -257 -18 -73 -18 -220 0 -314 27 -140 128 -352 227
-477 32 -41 67 -53 265 -93 65 -13 241 -49 389 -81 427 -89 552 -115 675 -141
63 -13 183 -37 265 -55 83 -17 191 -39 240 -49 50 -11 167 -35 260 -55 94 -20
213 -45 265 -55 52 -10 173 -35 267 -55 150 -31 179 -34 220 -25 84 19 2575
641 2668 667 109 30 136 53 143 124 4 45 2 51 -31 84 -32 32 -40 35 -94 35
l-59 0 -41 73 c-96 169 -125 350 -88 535 16 80 16 90 2 125 -12 28 -27 43 -57
56 -40 18 -44 18 -123 0 -81 -18 -83 -18 -257 6 -339 47 -763 103 -1060 140
-107 14 -206 27 -220 30 -36 7 -341 45 -365 45 -13 0 -39 -25 -73 -69 -101
-130 -184 -206 -259 -236 -87 -36 -207 -44 -306 -21 -124 29 -219 31 -362 6
-238 -41 -363 -9 -485 124 -70 77 -87 96 -126 145 -21 28 -43 52 -49 54 -5 1
-73 -9 -150 -24z m3638 -591 c7 -148 31 -246 91 -373 l43 -92 -1189 -297
c-1123 -280 -1191 -296 -1203 -279 -34 45 -85 165 -101 232 -22 100 -15 240
17 341 l25 75 64 16 c36 10 130 31 210 49 208 46 392 87 490 110 47 11 180 41
295 66 116 26 316 70 445 99 129 29 330 74 445 99 116 26 235 53 265 60 103
26 96 33 103 -106z m-4883 71 l160 -31 0 -122 c0 -144 20 -267 61 -379 44
-118 46 -130 23 -124 -21 7 -265 57 -275 57 -5 0 -40 52 -87 130 -20 35 -38
78 -69 175 -32 95 -19 325 18 325 5 0 81 -14 169 -31z m620 -119 c91 -17 230
-44 310 -60 80 -16 210 -41 290 -56 80 -14 180 -34 223 -43 l78 -16 3 -170 c3
-182 16 -265 62 -393 15 -40 25 -74 23 -76 -2 -2 -67 9 -144 25 -77 16 -183
38 -235 48 -52 11 -162 34 -245 51 -82 17 -201 42 -263 55 -62 13 -114 25
-116 27 -1 1 -18 23 -38 48 -101 127 -168 331 -168 511 l0 91 28 -6 c15 -3
101 -19 192 -36z m1320 -255 c315 -57 370 -69 370 -79 0 -6 -9 -47 -20 -91
-35 -141 -24 -347 26 -493 8 -25 13 -46 12 -48 -4 -3 -43 5 -237 45 -79 17
-144 31 -145 33 -1 2 -16 21 -33 43 -96 125 -158 345 -152 540 2 81 5 88 28
80 9 -2 77 -16 151 -30z"/>
<path d="M2125 2020 c-389 -79 -398 -80 -466 -64 -74 17 -113 12 -150 -19 -36
-30 -82 -116 -114 -212 -25 -74 -27 -89 -22 -205 6 -149 30 -238 111 -400 70
-140 138 -233 185 -254 20 -9 92 -27 161 -41 135 -27 186 -37 990 -205 294
-62 587 -123 650 -136 115 -23 156 -32 475 -99 94 -20 238 -49 321 -66 l151
-31 949 237 c522 130 1145 285 1385 345 240 60 447 114 461 120 75 35 77 174
3 208 -14 7 -48 12 -74 12 -44 0 -50 3 -74 38 -102 147 -151 386 -112 547 24
102 20 142 -19 181 -40 40 -65 42 -184 19 -42 -8 -505 -122 -1029 -252 l-952
-237 -163 34 c-90 18 -224 46 -298 62 -74 15 -189 39 -255 53 -66 13 -185 38
-265 55 -80 17 -197 42 -260 55 -658 136 -1143 238 -1215 254 -82 18 -102 18
-190 1z m4578 -407 c7 -141 40 -270 99 -386 21 -44 38 -81 36 -83 -4 -3 -239
-63 -1487 -374 -486 -121 -886 -220 -890 -220 -13 1 -70 111 -94 182 -33 95
-42 192 -27 297 9 65 40 174 54 188 2 2 269 63 656 149 162 36 342 76 400 90
129 29 439 98 580 129 58 12 168 37 245 54 77 18 192 43 255 57 63 14 116 27
119 29 2 3 14 5 26 5 21 0 22 -5 28 -117z m-4883 66 c52 -11 109 -22 126 -26
l32 -5 4 -147 c6 -162 29 -283 79 -404 16 -39 28 -71 26 -73 -4 -4 -283 53
-296 60 -41 26 -134 216 -162 331 -23 98 -24 161 -3 237 l17 59 41 -6 c23 -4
84 -16 136 -26z m620 -119 c216 -41 397 -76 545 -105 66 -13 174 -34 240 -46
l120 -22 1 -171 c1 -158 3 -180 32 -289 18 -65 39 -131 48 -148 8 -17 13 -33
10 -36 -3 -3 -36 2 -73 10 -37 9 -122 27 -188 41 -370 76 -442 91 -563 117
-73 16 -141 29 -152 29 -37 0 -119 118 -175 250 -34 82 -65 240 -65 336 l0 76
28 -6 c15 -3 101 -19 192 -36z m1565 -300 c61 -11 115 -22 121 -24 7 -3 5 -27
-8 -78 -39 -153 -34 -350 14 -496 12 -34 19 -64 17 -67 -4 -3 -380 72 -384 78
-55 80 -73 111 -100 170 -48 104 -78 242 -79 362 -1 55 2 107 6 116 6 15 21
13 155 -12 81 -16 198 -38 258 -49z"/>
</g>
</svg>
