<?xml version="1.0" encoding="utf-8"?>
<!-- Generator: Adobe Illustrator 17.0.0, SVG Export Plug-In . SVG Version: 6.00 Build 0)  -->
<!DOCTYPE svg PUBLIC "-//W3C//DTD SVG 1.1//EN" "http://www.w3.org/Graphics/SVG/1.1/DTD/svg11.dtd">
<svg version="1.1" id="Capa_1" xmlns="http://www.w3.org/2000/svg" xmlns:xlink="http://www.w3.org/1999/xlink" x="0px" y="0px"
	 width="162.766px" height="162.766px" viewBox="0 0 162.766 162.766" enable-background="new 0 0 162.766 162.766"
	 xml:space="preserve">
<g>
	<path fill="#999999" d="M162.766,76.612v9.537c-0.094,0.457-0.238,0.91-0.269,1.372c-0.789,11.412-3.82,22.218-9.362,32.195
		c-12.707,22.881-31.948,36.907-57.735,41.781c-3.054,0.578-6.165,0.852-9.25,1.269h-9.537c-0.408-0.09-0.812-0.238-1.224-0.265
		c-9.981-0.673-19.568-3.036-28.527-7.452C21.904,142.741,6.627,122.909,1.282,95.543C0.677,92.45,0.417,89.284,0,86.15v-9.537
		c0.094-0.453,0.238-0.906,0.269-1.368c0.906-12.681,4.542-24.536,11.16-35.369c12.909-21.11,31.558-34.06,55.932-38.607
		C70.42,0.695,73.527,0.417,76.612,0h9.537c0.408,0.09,0.816,0.238,1.229,0.265c9.927,0.673,19.46,3.013,28.379,7.389
		c25.052,12.281,40.36,32.145,45.727,59.564C162.089,70.317,162.345,73.483,162.766,76.612z"/>
	<g>
		<path fill="#D4D4D4" d="M86.152,162.766c-3.179,0-6.358,0-9.537,0c-0.408-0.091-0.813-0.236-1.225-0.264
			c-9.984-0.672-19.569-3.035-28.528-7.453c-24.957-12.308-40.235-32.14-45.578-59.504C0.679,92.449,0.419,89.285,0,86.152
			c0-3.179,0-6.358,0-9.537c0.092-0.457,0.237-0.91,0.27-1.37c0.903-12.679,4.542-24.537,11.161-35.366
			C24.338,18.764,42.986,5.814,67.364,1.268C70.42,0.698,73.53,0.415,76.615,0c3.179,0,6.358,0,9.537,0
			c0.408,0.091,0.813,0.236,1.225,0.264c9.928,0.674,19.46,3.014,28.382,7.39c25.049,12.284,40.359,32.145,45.723,59.567
			c0.606,3.096,0.864,6.261,1.283,9.394c0,3.179,0,6.358,0,9.537c-0.092,0.457-0.238,0.91-0.27,1.371
			c-0.789,11.41-3.819,22.217-9.361,32.194c-12.71,22.883-31.95,36.909-57.734,41.782C92.348,162.076,89.237,162.351,86.152,162.766
			z M81.423,91.269c-5.137,0-10.275-0.042-15.412,0.008c-14.492,0.141-25.681,10.114-27.434,24.448
			c-0.546,4.462,0.444,8.484,4.006,11.476c9.676,8.126,20.809,12.896,33.417,13.995c14.527,1.266,27.823-2.328,39.779-10.655
			c2.319-1.615,4.582-3.492,6.357-5.667c2.681-3.284,2.412-7.309,1.701-11.247c-2.365-13.111-13.454-22.24-27.162-22.351
			C91.593,91.234,86.508,91.269,81.423,91.269z M54.459,51.325c0.132,14.937,12.334,27.021,27.116,26.854
			c14.836-0.168,26.972-12.453,26.742-27.073c-0.235-14.96-12.269-26.857-27.041-26.732C66.367,24.5,54.33,36.597,54.459,51.325z"/>
	</g>
</g>
</svg>
